<?xml version="1.0" encoding="UTF-8" standalone="no"?>
<svg
   xmlns:dc="http://purl.org/dc/elements/1.1/"
   xmlns:cc="http://creativecommons.org/ns#"
   xmlns:rdf="http://www.w3.org/1999/02/22-rdf-syntax-ns#"
   xmlns:svg="http://www.w3.org/2000/svg"
   xmlns="http://www.w3.org/2000/svg"
   xmlns:sodipodi="http://sodipodi.sourceforge.net/DTD/sodipodi-0.dtd"
   xmlns:inkscape="http://www.inkscape.org/namespaces/inkscape"
   version="1.1"
   id="svg2"
   xml:space="preserve"
   width="377.94666"
   height="377.94666"
   viewBox="0 0 377.94666 377.94666"
   sodipodi:docname="DES-PrincipalA.eps"><metadata
     id="metadata8"><rdf:RDF><cc:Work
         rdf:about=""><dc:format>image/svg+xml</dc:format><dc:type
           rdf:resource="http://purl.org/dc/dcmitype/StillImage" /></cc:Work></rdf:RDF></metadata><defs
     id="defs6" /><sodipodi:namedview
     pagecolor="#ffffff"
     bordercolor="#666666"
     borderopacity="1"
     objecttolerance="10"
     gridtolerance="10"
     guidetolerance="10"
     inkscape:pageopacity="0"
     inkscape:pageshadow="2"
     inkscape:window-width="640"
     inkscape:window-height="480"
     id="namedview4" /><g
     id="g10"
     inkscape:groupmode="layer"
     inkscape:label="ink_ext_XXXXXX"
     transform="matrix(1.3333333,0,0,-1.3333333,0,377.94667)"><g
       id="g12"
       transform="scale(0.1)"><path
         d="m 1260.54,1187.45 h -17.17 V 1310.2 H 1320 v -15.08 h -59.46 v -38.14 h 55.65 v -14.74 h -55.65 v -54.79"
         style="fill:#ea1a2d;fill-opacity:1;fill-rule:nonzero;stroke:none"
         id="path14" /><path
         d="m 1359.02,1187.45 h -17.17 v 122.75 h 17.17 v -122.75"
         style="fill:#ea1a2d;fill-opacity:1;fill-rule:nonzero;stroke:none"
         id="path16" /><path
         d="m 1475.36,1212.08 h 0.34 v 98.12 h 17.17 v -122.75 h -21.67 l -64.85,100.21 h -0.34 v -100.21 h -17.17 v 122.75 h 22.37 l 64.15,-98.12"
         style="fill:#ea1a2d;fill-opacity:1;fill-rule:nonzero;stroke:none"
         id="path18" /><path
         d="m 1546.09,1232.7 h 45.95 l -22.88,57.57 z m -18.38,-45.25 h -19.07 l 53.23,122.75 h 15.6 l 52.71,-122.75 h -19.42 l -12.48,30.17 h -58.26 l -12.31,-30.17"
         style="fill:#ea1a2d;fill-opacity:1;fill-rule:nonzero;stroke:none"
         id="path20" /><path
         d="m 1732.48,1212.08 h 0.34 v 98.12 h 17.17 v -122.75 h -21.67 l -64.85,100.21 h -0.34 v -100.21 h -17.17 v 122.75 h 22.37 l 64.15,-98.12"
         style="fill:#ea1a2d;fill-opacity:1;fill-rule:nonzero;stroke:none"
         id="path22" /><path
         d="m 1885.05,1206.52 c -4.85,-6.58 -11.15,-11.93 -18.89,-16.04 -7.75,-4.1 -17.05,-6.15 -27.92,-6.15 -9.36,0 -18,1.59 -25.92,4.77 -7.92,3.17 -14.74,7.63 -20.45,13.35 -5.73,5.72 -10.21,12.54 -13.44,20.46 -3.24,7.92 -4.86,16.62 -4.86,26.09 0,9.6 1.65,18.35 4.94,26.27 3.3,7.92 7.86,14.68 13.7,20.28 5.83,5.61 12.75,9.97 20.72,13.1 7.98,3.11 16.65,4.68 26,4.68 4.17,0 8.39,-0.41 12.66,-1.21 4.28,-0.81 8.39,-2.04 12.31,-3.65 3.93,-1.62 7.51,-3.61 10.75,-5.98 3.24,-2.38 6.01,-5.11 8.32,-8.24 l -13.52,-10.4 c -3,4.16 -7.25,7.6 -12.75,10.32 -5.48,2.71 -11.41,4.07 -17.77,4.07 -7.16,0 -13.6,-1.3 -19.33,-3.9 -5.72,-2.6 -10.6,-6.15 -14.64,-10.66 -4.06,-4.51 -7.18,-9.74 -9.37,-15.7 -2.2,-5.94 -3.3,-12.27 -3.3,-18.98 0,-6.93 1.07,-13.41 3.21,-19.41 2.14,-6.02 5.21,-11.25 9.19,-15.7 3.99,-4.45 8.85,-7.95 14.57,-10.49 5.72,-2.54 12.11,-3.81 19.15,-3.81 6.94,0 13.24,1.38 18.9,4.16 5.67,2.77 10.35,6.82 14.05,12.14 l 13.69,-9.37"
         style="fill:#ea1a2d;fill-opacity:1;fill-rule:nonzero;stroke:none"
         id="path24" /><path
         d="m 1919.73,1187.45 h -17.16 v 122.75 h 17.16 v -122.75"
         style="fill:#ea1a2d;fill-opacity:1;fill-rule:nonzero;stroke:none"
         id="path26" /><path
         d="m 1966.72,1202.71 h 64.15 v -15.26 h -81.31 v 122.75 h 78.71 v -15.08 h -61.55 v -36.75 h 57.91 v -14.74 h -57.91 v -40.92"
         style="fill:#ea1a2d;fill-opacity:1;fill-rule:nonzero;stroke:none"
         id="path28" /><path
         d="m 2070.92,1256.46 h 19.77 c 4.05,0 7.81,0.34 11.27,1.04 3.47,0.69 6.5,1.81 9.1,3.38 2.6,1.56 4.66,3.58 6.15,6.07 1.51,2.48 2.26,5.58 2.26,9.27 0,3.71 -0.75,6.79 -2.26,9.27 -1.49,2.49 -3.49,4.49 -5.98,5.99 -2.48,1.5 -5.4,2.57 -8.75,3.2 -3.35,0.65 -6.88,0.96 -10.58,0.96 h -20.98 z m 0,-69.01 h -17.16 v 122.75 h 39.36 c 5.89,0 11.5,-0.6 16.81,-1.81 5.32,-1.22 9.97,-3.16 13.96,-5.82 3.99,-2.65 7.14,-6.15 9.45,-10.48 2.31,-4.34 3.47,-9.62 3.47,-15.87 0,-9.02 -2.78,-16.3 -8.32,-21.84 -5.56,-5.55 -12.72,-9.08 -21.5,-10.57 l 34.32,-56.36 h -20.8 l -31.21,54.62 h -18.38 v -54.62"
         style="fill:#ea1a2d;fill-opacity:1;fill-rule:nonzero;stroke:none"
         id="path30" /><path
         d="m 2183.62,1232.7 h 45.95 l -22.89,57.57 z m -18.38,-45.25 h -19.07 l 53.23,122.75 h 15.6 l 52.71,-122.75 h -19.42 l -12.48,30.17 h -58.26 l -12.31,-30.17"
         style="fill:#ea1a2d;fill-opacity:1;fill-rule:nonzero;stroke:none"
         id="path32" /><path
         d="m 717.895,1629.06 c 205.203,19.95 315.195,-35.22 383.115,-179.91 5.12,-10.67 9.95,-23.11 14.1,-37 v 292.67 c 0,15.29 -12.4,27.69 -27.69,27.69 H 594.617 c -15.293,0 -27.687,-12.4 -27.687,-27.69 v -492.8 c 0,-15.29 12.394,-27.69 27.687,-27.69 h 41.578 l 134,391.02 -52.3,53.71"
         style="fill:#ea1a2d;fill-opacity:1;fill-rule:nonzero;stroke:none"
         id="path34" /><path
         d="m 1013.2,1467.03 c -18.18,5.71 -37.524,8.81 -57.598,8.81 -1.098,0 -2.184,-0.07 -3.278,-0.08 L 774.316,1221.03 c 26.051,-75.07 97.356,-128.97 181.286,-128.97 105.978,0 191.898,85.91 191.898,191.88 0,85.91 -56.46,158.63 -134.3,183.09"
         style="fill:#ea1a2d;fill-opacity:1;fill-rule:nonzero;stroke:none"
         id="path36" /><path
         d="m 956.211,1475.84 c -0.004,0 0,0 -0.004,0 h 0.004 m -0.184,0 c -0.039,0 -0.074,0 -0.109,0 0.035,0 0.07,0 0.109,0 m -0.207,0 c -0.07,0 -0.144,0 -0.215,0 v 0 c 0.075,0 0.145,0 0.215,0"
         style="fill:#cec9c7;fill-opacity:1;fill-rule:nonzero;stroke:none"
         id="path38" /><path
         d="m 778.477,1210.41 c -1.461,3.5 -2.907,7.02 -4.161,10.62 v 0 l 178.008,254.73 c 1.094,0.01 2.176,0.08 3.281,0.08 0.071,0 0.145,0 0.215,0 0.032,0 0.067,0 0.098,0 0.035,0 0.07,0 0.109,0 0.059,0 0.121,0 0.18,0 0.004,0 0,0 0.004,0 16.937,-0.06 33.305,-2.44 48.949,-6.61 L 778.477,1210.41"
         style="fill:#cdc8c6;fill-opacity:1;fill-rule:nonzero;stroke:none"
         id="path40" /><path
         d="m 778.477,1210.41 c -1.461,3.5 -2.907,7.02 -4.161,10.62 v 0 l 178.008,254.73 c 1.094,0.01 2.176,0.08 3.281,0.08 0.071,0 0.145,0 0.215,0 0.032,0 0.067,0 0.098,0 0.035,0 0.07,0 0.109,0 0.059,0 0.121,0 0.18,0 0.004,0 0,0 0.004,0 16.937,-0.06 33.305,-2.44 48.949,-6.61 L 778.477,1210.41"
         style="fill:#ea1a2d;fill-opacity:1;fill-rule:nonzero;stroke:none"
         id="path42" /><path
         d="m 1371.63,1618.26 v -168.59 h 24.64 c 31.36,0 55.45,6.8 72.26,20.38 16.8,13.58 25.2,35.82 25.2,66.71 0,25.68 -8.4,45.68 -25.2,60 -16.81,14.33 -39.21,21.5 -67.22,21.5 z m -128.27,-283.4 v 396.54 h 147.87 c 31.37,0 61.33,-3.08 89.89,-9.25 28.57,-6.16 53.77,-16.79 75.61,-31.92 21.85,-15.12 39.3,-35.19 52.38,-60.2 13.06,-25.02 19.6,-56.58 19.6,-94.66 0,-34.73 -6.26,-64.79 -18.76,-90.18 -12.52,-25.39 -29.23,-46.2 -50.14,-62.44 -20.9,-16.25 -44.99,-28.29 -72.24,-36.13 -27.27,-7.83 -55.64,-11.76 -85.14,-11.76 h -159.07"
         style="fill:#211f1e;fill-opacity:1;fill-rule:nonzero;stroke:none"
         id="path44" /><path
         d="m 1642.06,1731.4 h 272.76 v -110.9 h -147.31 v -34.17 h 138.35 v -103.61 h -138.35 v -36.96 h 156.83 v -110.9 h -282.28 v 396.54"
         style="fill:#211f1e;fill-opacity:1;fill-rule:nonzero;stroke:none"
         id="path46" /><path
         d="m 2098.19,1334.86 c -15.63,0 -30.99,1.36 -46.06,4.06 -15.08,2.72 -29.63,6.69 -43.61,11.94 -13.99,5.24 -27.17,11.38 -39.52,18.43 -12.36,7.05 -23.44,14.92 -33.25,23.6 l 79.04,85.88 c 9.08,-9.81 21.16,-18.54 36.25,-26.17 15.07,-7.63 30.61,-11.44 46.6,-11.44 7.27,0 13.9,1.27 19.9,3.82 6,2.55 8.99,7.28 8.99,14.2 0,3.64 -1,6.72 -2.99,9.28 -2.01,2.55 -5.55,5.19 -10.63,7.91 -5.1,2.73 -12.09,5.74 -20.99,9.02 -8.91,3.27 -20.08,7.09 -33.53,11.47 -13.08,4.36 -25.61,9.54 -37.61,15.56 -11.99,6 -22.62,13.38 -31.88,22.12 -9.27,8.74 -16.63,19.2 -22.08,31.39 -5.45,12.2 -8.18,26.85 -8.18,43.97 0,24.02 4.9,44.41 14.71,61.15 9.82,16.75 22.44,30.5 37.9,41.24 15.43,10.74 32.79,18.47 52.05,23.2 19.26,4.74 38.34,7.11 57.24,7.11 25.43,0 51.33,-4.91 77.68,-14.71 26.34,-9.82 49.5,-23.99 69.49,-42.52 l -80.67,-82.32 c -8.72,10.9 -19.44,19.16 -32.16,24.81 -12.73,5.62 -24.17,8.45 -34.34,8.45 -9.46,0 -17.09,-1.37 -22.9,-4.1 -5.81,-2.72 -8.72,-7.17 -8.72,-13.35 0,-5.82 3,-10.18 9,-13.08 6,-2.91 15.71,-6.55 29.16,-10.9 13.8,-4.37 28.34,-9.45 43.61,-15.26 15.26,-5.82 29.34,-13.36 42.24,-22.63 12.9,-9.27 23.53,-20.63 31.89,-34.06 8.36,-13.46 12.54,-30.18 12.54,-50.16 0,-23.26 -4.64,-43.53 -13.9,-60.78 -9.27,-17.27 -21.45,-31.61 -36.52,-43.06 -15.08,-11.45 -32.08,-19.99 -50.97,-25.62 -18.9,-5.63 -38.16,-8.45 -57.78,-8.45"
         style="fill:#211f1e;fill-opacity:1;fill-rule:nonzero;stroke:none"
         id="path48" /><path
         d="m 2252.16,1357.53 h -3.02 v -4.27 h 3.02 l 1.57,0.56 0.59,1.54 -0.59,1.57 z m 0,3.5 c 1.87,0 3.38,-0.53 4.53,-1.59 1.16,-1.06 1.73,-2.38 1.73,-3.97 0,-2.34 -1.04,-4.03 -3.13,-5.07 l 3.78,-6.43 h -4.48 l -3.08,5.77 h -2.37 v -5.77 h -3.94 v 17.06 z m -13.12,-8.75 c 0,-3.67 1.17,-6.7 3.51,-9.09 2.34,-2.4 5.31,-3.59 8.91,-3.59 3.6,0 6.58,1.19 8.94,3.59 2.35,2.39 3.53,5.42 3.53,9.09 0,3.71 -1.17,6.75 -3.51,9.13 -2.34,2.38 -5.33,3.57 -8.96,3.57 -3.64,0 -6.62,-1.19 -8.94,-3.57 -2.32,-2.38 -3.48,-5.42 -3.48,-9.13 z m 28.67,0 c 0,-4.64 -1.54,-8.5 -4.61,-11.58 -3.08,-3.08 -6.96,-4.61 -11.64,-4.61 -4.68,0 -8.55,1.53 -11.61,4.61 -3.06,3.08 -4.59,6.94 -4.59,11.58 0,4.72 1.53,8.62 4.59,11.69 3.06,3.08 6.93,4.62 11.61,4.62 4.71,0 8.6,-1.54 11.66,-4.62 3.06,-3.07 4.59,-6.97 4.59,-11.69"
         style="fill:#211f1e;fill-opacity:1;fill-rule:nonzero;stroke:none"
         id="path50" /></g></g></svg>
